<svg width="25" height="24" viewBox="0 0 25 24" fill="none" xmlns="http://www.w3.org/2000/svg">
<path fill-rule="evenodd" clip-rule="evenodd" d="M6.23929 16.1652C4.95144 14.8829 3.97101 13.3198 3.3731 11.5954C2.29714 8.25031 3.55393 4.42083 7.07112 3.28752C8.91961 2.69243 10.9384 3.03255 12.4961 4.20148C14.0543 3.03398 16.0725 2.69398 17.9211 3.28752C21.4383 4.42083 22.7041 8.25031 21.6281 11.5954C21.0302 13.3198 20.0498 14.8829 18.7619 16.1652C17.2995 17.5866 15.7158 18.854 14.0393 20C13.1109 20.6345 11.8922 20.646 10.9611 20.0156C9.27733 18.8756 7.69608 17.5811 6.23929 16.1652Z" stroke="#8067FF" stroke-width="1.5" stroke-linecap="round" stroke-linejoin="round"/>
<path d="M16.2393 7.05301C17.3046 7.39331 18.0615 8.34971 18.1561 9.47499" stroke="#8067FF" stroke-width="1.5" stroke-linecap="round" stroke-linejoin="round"/>
</svg>
