<svg width="25" height="24" viewBox="0 0 25 24" fill="none" xmlns="http://www.w3.org/2000/svg">
<path d="M12.8298 4.94863L12.8298 4.94864L11.62 6.7632C11.4102 7.0779 10.9989 7.18713 10.6606 7.01798L8.52751 5.95145C8.33509 5.85524 8.19326 5.68104 8.13804 5.47312C8.08282 5.26521 8.11955 5.04359 8.23888 4.86459L9.60273 2.81885L9.60274 2.81884C9.99026 2.23759 10.7729 2.07543 11.3595 2.45498L12.8298 4.94863ZM12.8298 4.94863C13.2249 4.35597 13.059 3.55463 12.4609 3.16767C12.4609 3.16766 12.4609 3.16766 12.4609 3.16766L11.3595 2.45498L12.8298 4.94863Z" stroke="#8067FF" stroke-width="1.5" stroke-linecap="round" stroke-linejoin="round"/>
<path d="M14.7039 8.3051C14.494 8.61982 14.0827 8.72905 13.7444 8.55989L11.6113 7.49332C11.4189 7.39711 11.2771 7.22292 11.2218 7.015C11.1666 6.80709 11.2033 6.58548 11.3227 6.40648L12.4753 4.67756L12.4753 4.67754C12.8628 4.09629 13.6454 3.93413 14.232 4.31368L14.7039 8.3051ZM14.7039 8.3051L15.7024 6.80733C16.0975 6.21468 15.9315 5.41334 15.3335 5.02637C15.3335 5.02637 15.3335 5.02637 15.3334 5.02636L14.232 4.31369L14.7039 8.3051Z" stroke="#8067FF" stroke-width="1.5" stroke-linecap="round" stroke-linejoin="round"/>
<path d="M14.5087 11.5107L14.5087 11.5107L15.4745 11.9399L15.4746 11.94C16.0431 12.1926 16.711 11.9989 17.0561 11.4812L17.0561 11.4812L18.8423 8.80192C19.2374 8.20927 19.0715 7.40794 18.4734 7.02097C18.4734 7.02097 18.4734 7.02096 18.4734 7.02095L17.5988 6.45499L17.5988 6.45498C17.0122 6.07543 16.2295 6.23759 15.842 6.81884L15.842 6.81886L13.9647 9.63488L13.9646 9.63499C13.5256 10.2937 13.7852 11.1892 14.5087 11.5107Z" stroke="#8067FF" stroke-width="1.5" stroke-linecap="round" stroke-linejoin="round"/>
<path d="M21.1977 9.02096L21.1977 9.02092L20.3231 8.45498C20.3231 8.45498 20.323 8.45498 20.323 8.45498C19.7365 8.07543 18.9538 8.23759 18.5663 8.81884L18.5663 8.81886L16.9647 11.2213L16.9647 11.2213C16.5255 11.8801 16.7852 12.7756 17.5087 13.0971L17.5087 13.0971L18.4745 13.5263L18.4746 13.5264C19.043 13.779 19.7109 13.5854 20.0561 13.0676C20.0561 13.0676 20.0561 13.0676 20.0561 13.0676L21.5665 10.8019C21.9618 10.2092 21.7957 9.4079 21.1977 9.02096Z" stroke="#8067FF" stroke-width="1.5" stroke-linecap="round" stroke-linejoin="round"/>
<path d="M17.0827 13.2314L17.0827 13.2314L12.259 11.0876C12.3345 11.0186 12.4023 10.9401 12.4603 10.853L12.4603 10.853L12.7829 10.3691C13.2092 9.72974 12.9785 8.86159 12.2913 8.51801L8.02512 6.38491C7.44893 6.09681 6.74838 6.28288 6.39106 6.81886L6.39106 6.81886L3.96458 10.4586C3.96457 10.4587 3.96455 10.4587 3.96454 10.4587C3.66565 10.907 3.68024 11.4946 4.00093 11.9275C4.00093 11.9275 4.00093 11.9276 4.00093 11.9276L7.8251 17.0901L6.88628 20.8454C6.88628 20.8454 6.88628 20.8454 6.88627 20.8454C6.68471 21.6516 7.29452 22.4325 8.12547 22.4325H16.101C16.8064 22.4325 17.3783 21.8606 17.3783 21.1552V18.4595L17.6065 18.3073C17.6065 18.3073 17.6065 18.3073 17.6065 18.3073C18.6827 17.5898 19.326 16.3879 19.326 15.0944V13.5509C19.326 13.2428 19.1376 12.9661 18.8509 12.8531C18.5643 12.7402 18.2377 12.814 18.0276 13.0393C17.8715 13.2066 17.6535 13.3032 17.4204 13.3032H17.4204H17.4204H17.4204H17.4204H17.4204H17.4204H17.4204H17.4204H17.4204H17.4204H17.4204H17.4203H17.4203C17.3029 13.3032 17.1906 13.2793 17.0827 13.2314ZM13.2597 16.3932V16.3932Z" stroke="#8067FF" stroke-width="1.5" stroke-linecap="round" stroke-linejoin="round"/>
</svg>
